#N canvas 10 10 500 500 16;
#X obj 10 10 inlet;
#X obj 100 10 inlet;
#X obj 10 400 outlet;
#X obj 100 50 route theme goal msg-time;
#X obj 100 400 print msg-motion: unknown slot;
#X msg 300 122 go1;
#X msg 300 172 to;
#X obj 100 100 lexicon;
#X obj 100 150 lexicon;
#X obj 100 200 lexicon;
#X obj 10 100 t b b b;
#X obj 10 150 list;
#X obj 10 200 list;
#X obj 10 250 list;
#X obj 10 300 list;
#X connect 1 0 3 0;
#X connect 3 3 4 0;
#X connect 3 0 7 0;
#X connect 3 1 8 0;
#X connect 5 0 9 0;
#X connect 7 1 9 1;
#X connect 3 2 9 1;
#X connect 0 0 10 0;
#X connect 10 1 5 0;
#X connect 10 2 6 0;
#X connect 10 0 11 0;
#X connect 7 0 11 1;
#X connect 11 0 12 0;
#X connect 9 0 12 1;
#X connect 12 0 13 0;
#X connect 6 0 13 1;
#X connect 13 0 14 0;
#X connect 8 0 14 1;
#X connect 14 0 2 0;
